# Created by FreeCAD <http://www.freecadweb.org>
v 33.500000 0.000000 0.000000
v 33.500000 -25.000000 26.000000
v 33.500000 -25.000000 0.000000
v 33.500000 0.000000 26.000000
v 0.000000 0.000000 26.000000
v 9.000000 0.000000 9.000000
v 0.000000 0.000000 0.000000
v 9.000000 0.000000 26.000000
v 26.500000 0.000000 9.000000
v 26.500000 0.000000 26.000000
v 32.500000 -1.000000 27.000000
v 32.500000 -24.000000 27.000000
v 0.000000 -25.000000 0.000000
v 9.000000 -25.000000 9.000000
v 0.000000 -25.000000 26.000000
v 0.000000 -25.000000 0.000000
v 9.000000 -25.000000 26.000000
v 26.500000 -25.000000 9.000000
v 33.500000 -25.000000 26.000000
v 26.500000 -25.000000 26.000000
v 33.500000 -25.000000 0.000000
v 26.500000 -1.000000 27.000000
v 26.500000 -24.000000 27.000000
v 26.500000 -25.000000 9.000000
v 26.500000 -25.000000 26.000000
v 0.000000 -25.000000 26.000000
v 9.000000 -25.000000 9.000000
v 1.000000 -1.000000 27.000000
v 9.000000 -1.000000 27.000000
v 9.000000 -24.000000 27.000000
v 9.000000 -25.000000 26.000000
v 1.000000 -24.000000 27.000000
vn 1.000000 0.000000 0.000000
vn 1.000000 0.000000 -0.000000
vn -0.000000 1.000000 -0.000000
vn -0.000000 1.000000 -0.000000
vn -0.000000 1.000000 -0.000000
vn 0.000000 1.000000 -0.000000
vn 0.000000 1.000000 -0.000000
vn 0.000000 1.000000 -0.000000
vn 0.707107 0.000000 0.707107
vn 0.707107 0.000000 0.707107
vn 0.000000 -0.000000 -1.000000
vn 0.000000 -0.000000 -1.000000
vn -0.000000 -1.000000 0.000000
vn 0.000000 -1.000000 0.000000
vn 0.000000 -1.000000 0.000000
vn 0.000000 -1.000000 0.000000
vn 0.000000 -1.000000 0.000000
vn 0.000000 -1.000000 0.000000
vn -0.000000 0.707107 0.707107
vn 0.000000 0.707107 0.707107
vn -1.000000 0.000000 0.000000
vn -1.000000 -0.000000 -0.000000
vn -1.000000 -0.000000 0.000000
vn -1.000000 0.000000 -0.000000
vn -1.000000 -0.000000 0.000000
vn -1.000000 0.000000 0.000000
vn 0.000000 0.000000 1.000000
vn 0.000000 0.000000 1.000000
vn 0.000000 0.707107 0.707107
vn -0.000000 0.707107 0.707107
vn 1.000000 0.000000 0.000000
vn 1.000000 0.000000 0.000000
vn 1.000000 0.000000 0.000000
vn 1.000000 0.000000 -0.000000
vn 0.000000 0.000000 1.000000
vn 0.000000 0.000000 1.000000
vn 0.000000 -0.707107 0.707107
vn 0.000000 -0.707107 0.707107
vn 0.000000 -0.707107 0.707107
vn 0.000000 -0.707107 0.707107
vn -0.707107 0.000000 0.707107
vn -0.707107 0.000000 0.707107
vn 0.000000 0.000000 1.000000
vn 0.000000 0.000000 1.000000
f 1//1 2//1 3//1
f 1//2 4//2 2//2
f 5//3 6//3 7//3
f 8//4 6//4 5//4
f 4//5 9//5 10//5
f 9//6 1//6 6//6
f 6//7 1//7 7//7
f 4//8 1//8 9//8
f 11//9 2//9 4//9
f 11//10 12//10 2//10
f 7//11 1//11 13//11
f 13//12 1//12 3//12
f 14//13 15//13 16//13
f 14//14 17//14 15//14
f 18//15 19//15 20//15
f 21//16 18//16 14//16
f 21//17 14//17 16//17
f 21//18 19//18 18//18
f 4//19 10//19 11//19
f 11//20 10//20 22//20
f 23//21 24//21 25//21
f 22//22 9//22 23//22
f 10//23 9//23 22//23
f 23//24 9//24 24//24
f 5//25 7//25 26//25
f 26//26 7//26 13//26
f 9//27 6//27 24//27
f 24//28 6//28 27//28
f 8//29 28//29 29//29
f 8//30 5//30 28//30
f 27//31 30//31 31//31
f 27//32 6//32 30//32
f 6//33 29//33 30//33
f 6//34 8//34 29//34
f 12//35 22//35 23//35
f 11//36 22//36 12//36
f 25//37 2//37 12//37
f 25//38 12//38 23//38
f 32//39 31//39 30//39
f 26//40 31//40 32//40
f 5//41 32//41 28//41
f 5//42 26//42 32//42
f 29//43 28//43 30//43
f 30//44 28//44 32//44
