# Created by FreeCAD <http://www.freecadweb.org>
v -0.000000 2.000000 13.000000
v 0.000000 0.000000 20.000000
v 0.000000 2.000000 20.000000
v 0.000000 2.000000 0.000000
v 0.000000 0.000000 0.000000
v -0.000000 2.000000 7.000000
v 6.000000 0.000000 0.000000
v 3.114510 0.000000 9.056927
v 2.050000 0.000000 10.000000
v 6.000000 0.000000 20.000000
v 3.950000 0.000000 10.000000
v 2.288915 0.000000 10.629967
v 2.460339 0.000000 10.781835
v 2.158817 0.000000 10.441487
v 2.663125 0.000000 10.888266
v 2.077605 0.000000 10.227350
v 2.885490 0.000000 10.943073
v 3.114510 0.000000 10.943073
v 3.336875 0.000000 10.888266
v 3.539661 0.000000 10.781835
v 3.711085 0.000000 10.629967
v 3.841183 0.000000 10.441487
v 3.922395 0.000000 10.227350
v 2.077605 0.000000 9.772650
v 2.158817 0.000000 9.558513
v 2.288915 0.000000 9.370033
v 2.460339 0.000000 9.218165
v 2.663125 0.000000 9.111734
v 2.885490 0.000000 9.056927
v 3.336875 0.000000 9.111734
v 3.539661 0.000000 9.218165
v 3.711085 0.000000 9.370033
v 3.841183 0.000000 9.558513
v 3.922395 0.000000 9.772650
v 3.000000 2.000000 0.000000
v 3.333781 2.037608 0.000000
v 3.650826 2.148547 0.000000
v 3.935235 2.327253 0.000000
v 4.172747 2.564765 0.000000
v 4.351453 2.849174 0.000000
v 4.462392 3.166219 0.000000
v 4.500000 3.500000 0.000000
v 1.500000 8.000000 0.000000
v 3.257359 6.500000 0.000000
v 1.500000 6.500000 0.000000
v 6.000000 5.878680 0.000000
v 4.500000 5.257360 0.000000
v 3.878680 8.000000 0.000000
v 3.000000 2.000000 20.000000
v 3.333781 2.037608 20.000000
v 3.650826 2.148547 20.000000
v 3.935235 2.327253 20.000000
v 4.172747 2.564765 20.000000
v 4.351453 2.849174 20.000000
v 4.462392 3.166219 20.000000
v 4.500000 3.500000 20.000000
v 3.257359 6.500000 20.000000
v 1.500000 8.000000 20.000000
v 1.500000 6.500000 20.000000
v 6.000000 5.878680 20.000000
v 4.500000 5.257360 20.000000
v 3.878680 8.000000 20.000000
v 3.000000 2.000000 7.000000
v 3.000000 2.000000 13.000000
v 2.772650 2.000000 10.922395
v 3.000000 2.000000 10.950000
v 2.558513 2.000000 10.841184
v 2.370034 2.000000 10.711085
v 2.218165 2.000000 10.539661
v 2.111735 2.000000 10.336875
v 2.056926 2.000000 10.114510
v 2.558513 2.000000 9.158816
v 2.772650 2.000000 9.077605
v 3.000000 2.000000 9.050000
v 2.056926 2.000000 9.885490
v 2.111735 2.000000 9.663125
v 2.218165 2.000000 9.460339
v 2.370034 2.000000 9.288915
v 6.000000 2.000000 13.000000
v 6.000000 5.878680 13.000000
v 6.000000 5.878680 7.000000
v 6.000000 2.000000 7.000000
v 3.211395 2.000000 9.073818
v 3.950000 2.000000 10.000000
v 3.926182 2.000000 10.211395
v 3.412189 2.000000 9.144079
v 3.855920 2.000000 10.412189
v 3.592315 2.000000 9.257260
v 3.742740 2.000000 10.592316
v 3.742740 2.000000 9.407684
v 3.592315 2.000000 10.742740
v 3.855920 2.000000 9.587811
v 3.412189 2.000000 10.855921
v 3.926182 2.000000 9.788605
v 3.211395 2.000000 10.926182
v 3.878680 8.000000 7.000000
v 1.500000 8.000000 7.000000
v 1.500000 6.500000 7.000000
v 3.257359 6.500000 7.000000
v 4.500000 5.257360 7.000000
v 4.500000 3.500000 7.000000
v 3.333781 2.037608 7.000000
v 3.650826 2.148547 7.000000
v 3.935235 2.327253 7.000000
v 4.172747 2.564765 7.000000
v 4.351453 2.849174 7.000000
v 4.462392 3.166219 7.000000
v 3.878680 8.000000 13.000000
v 1.500000 8.000000 13.000000
v 1.500000 6.500000 13.000000
v 3.257359 6.500000 13.000000
v 4.500000 5.257360 13.000000
v 4.500000 3.500000 13.000000
v 3.333781 2.037608 13.000000
v 3.650826 2.148547 13.000000
v 3.935235 2.327253 13.000000
v 4.172747 2.564765 13.000000
v 4.351453 2.849174 13.000000
v 4.462392 3.166219 13.000000
vn -1.000000 0.000000 0.000000
vn -1.000000 -0.000000 -0.000000
vn -1.000000 -0.000000 0.000000
vn -1.000000 -0.000000 -0.000000
vn 0.000000 -1.000000 0.000000
vn 0.000000 -1.000000 0.000000
vn -0.000000 -1.000000 0.000000
vn 0.000000 -1.000000 -0.000000
vn 0.000000 -1.000000 -0.000000
vn 0.000000 -1.000000 -0.000000
vn 0.000000 -1.000000 -0.000000
vn 0.000000 -1.000000 -0.000000
vn 0.000000 -1.000000 0.000000
vn 0.000000 -1.000000 -0.000000
vn 0.000000 -1.000000 -0.000000
vn -0.000000 -1.000000 -0.000000
vn -0.000000 -1.000000 -0.000000
vn -0.000000 -1.000000 -0.000000
vn -0.000000 -1.000000 -0.000000
vn -0.000000 -1.000000 -0.000000
vn -0.000000 -1.000000 0.000000
vn 0.000000 -1.000000 0.000000
vn 0.000000 -1.000000 0.000000
vn 0.000000 -1.000000 0.000000
vn 0.000000 -1.000000 0.000000
vn 0.000000 -1.000000 0.000000
vn 0.000000 -1.000000 0.000000
vn 0.000000 -1.000000 0.000000
vn 0.000000 -1.000000 0.000000
vn 0.000000 -1.000000 0.000000
vn 0.000000 -1.000000 0.000000
vn 0.000000 -1.000000 0.000000
vn 0.000000 -1.000000 0.000000
vn 0.000000 -1.000000 0.000000
vn 0.000000 0.000000 -1.000000
vn 0.000000 -0.000000 -1.000000
vn 0.000000 -0.000000 -1.000000
vn 0.000000 -0.000000 -1.000000
vn 0.000000 0.000000 -1.000000
vn 0.000000 0.000000 -1.000000
vn 0.000000 0.000000 -1.000000
vn 0.000000 0.000000 -1.000000
vn 0.000000 0.000000 -1.000000
vn 0.000000 0.000000 -1.000000
vn 0.000000 0.000000 -1.000000
vn 0.000000 0.000000 -1.000000
vn 0.000000 0.000000 -1.000000
vn 0.000000 0.000000 -1.000000
vn 0.000000 0.000000 -1.000000
vn 0.000000 0.000000 1.000000
vn 0.000000 0.000000 1.000000
vn 0.000000 0.000000 1.000000
vn 0.000000 0.000000 1.000000
vn 0.000000 0.000000 1.000000
vn 0.000000 0.000000 1.000000
vn 0.000000 0.000000 1.000000
vn 0.000000 0.000000 1.000000
vn 0.000000 0.000000 1.000000
vn 0.000000 0.000000 1.000000
vn 0.000000 0.000000 1.000000
vn 0.000000 0.000000 1.000000
vn 0.000000 0.000000 1.000000
vn 0.000000 0.000000 1.000000
vn 0.000000 0.000000 1.000000
vn 0.000000 1.000000 -0.000000
vn 0.000000 1.000000 0.000000
vn 0.000000 1.000000 -0.000000
vn 0.000000 1.000000 0.000000
vn 0.000000 1.000000 0.000000
vn 0.000000 1.000000 0.000000
vn 0.000000 1.000000 0.000000
vn -0.000000 1.000000 0.000000
vn 0.000000 1.000000 -0.000000
vn 0.000000 1.000000 -0.000000
vn 0.000000 1.000000 -0.000000
vn 0.000000 1.000000 0.000000
vn 0.000000 1.000000 -0.000000
vn 0.000000 1.000000 0.000000
vn 0.000000 1.000000 0.000000
vn 0.000000 1.000000 0.000000
vn 0.000000 1.000000 0.000000
vn 0.000000 1.000000 0.000000
vn 0.000000 1.000000 -0.000000
vn 0.000000 1.000000 0.000000
vn 1.000000 0.000000 -0.000000
vn 1.000000 0.000000 0.000000
vn 1.000000 0.000000 -0.000000
vn 1.000000 0.000000 0.000000
vn 1.000000 0.000000 0.000000
vn 1.000000 0.000000 0.000000
vn 0.239313 0.003463 0.970936
vn 0.120535 -0.003463 0.992703
vn -0.111962 -0.002969 0.993708
vn -0.000000 0.003463 0.999994
vn -0.993712 -0.000000 -0.111964
vn -0.330277 -0.002827 0.943880
vn -0.239313 0.003393 0.970937
vn -0.943883 -0.000848 -0.330280
vn -0.992708 0.000918 -0.120537
vn -0.532032 -0.002544 0.846720
vn -0.464722 0.003180 0.885451
vn -0.846724 -0.001555 -0.532030
vn -0.935015 0.001695 -0.354605
vn -0.707104 -0.002120 0.707107
vn -0.663119 0.002826 0.748509
vn -0.707104 -0.002120 -0.707107
vn -0.822982 0.002331 -0.568063
vn -0.846724 -0.001555 0.532030
vn -0.532032 -0.002544 -0.846720
vn -0.822982 0.002331 0.568063
vn -0.663119 0.002826 -0.748509
vn -0.943883 -0.000848 0.330280
vn -0.935015 0.001695 0.354605
vn -0.330277 -0.002827 -0.943880
vn -0.993712 0.000000 0.111964
vn -0.992708 0.000918 0.120537
vn -0.464722 0.003180 -0.885451
vn -0.111962 -0.002969 -0.993708
vn -0.239313 0.003393 -0.970937
vn 0.120535 -0.003463 -0.992703
vn 0.000000 0.003463 -0.999994
vn 0.354601 -0.003463 -0.935011
vn 0.239313 0.003463 -0.970936
vn 0.568062 -0.003463 -0.822978
vn 0.464722 0.003463 -0.885450
vn 0.748507 -0.003463 -0.663118
vn 0.663118 0.003463 -0.748507
vn 0.822979 0.003463 -0.568061
vn 0.885450 -0.003463 -0.464721
vn 0.935010 0.003463 -0.354603
vn 0.970936 -0.003463 -0.239314
vn 0.992703 0.003463 -0.120536
vn 0.999994 -0.003463 0.000000
vn 0.992703 0.003463 0.120536
vn 0.970936 -0.003463 0.239314
vn 0.935010 0.003463 0.354603
vn 0.885450 -0.003463 0.464721
vn 0.822979 0.003463 0.568061
vn 0.748507 -0.003463 0.663118
vn 0.663118 0.003463 0.748507
vn 0.568062 -0.003463 0.822978
vn 0.464722 0.003463 0.885450
vn 0.354601 -0.003463 0.935011
vn 0.707107 0.707107 -0.000000
vn 0.707107 0.707107 0.000000
vn 0.000000 1.000000 -0.000000
vn 0.000000 1.000000 0.000000
vn -1.000000 0.000000 0.000000
vn -1.000000 0.000000 0.000000
vn 0.000000 -1.000000 0.000000
vn 0.000000 -1.000000 0.000000
vn -0.707107 -0.707107 0.000000
vn -0.707107 -0.707107 0.000000
vn -1.000000 0.000000 0.000000
vn -1.000000 0.000000 0.000000
vn -0.111965 0.993712 0.000000
vn -0.111965 0.993712 0.000000
vn -0.330279 0.943883 0.000000
vn -0.330279 0.943883 0.000000
vn -0.532032 0.846724 0.000000
vn -0.532032 0.846724 0.000000
vn -0.707107 0.707107 0.000000
vn -0.707107 0.707107 0.000000
vn -0.846724 0.532032 0.000000
vn -0.846724 0.532032 0.000000
vn -0.943883 0.330279 0.000000
vn -0.943883 0.330279 0.000000
vn -0.993712 0.111965 0.000000
vn -0.993712 0.111965 0.000000
vn 0.707107 0.707107 -0.000000
vn 0.707107 0.707107 0.000000
vn 0.000000 1.000000 -0.000000
vn 0.000000 1.000000 0.000000
vn -1.000000 0.000000 0.000000
vn -1.000000 0.000000 0.000000
vn 0.000000 -1.000000 0.000000
vn 0.000000 -1.000000 0.000000
vn -0.707107 -0.707107 0.000000
vn -0.707107 -0.707107 0.000000
vn -1.000000 0.000000 0.000000
vn -1.000000 0.000000 0.000000
vn -0.111965 0.993712 0.000000
vn -0.111965 0.993712 0.000000
vn -0.330279 0.943883 0.000000
vn -0.330279 0.943883 0.000000
vn -0.532032 0.846724 0.000000
vn -0.532032 0.846724 0.000000
vn -0.707107 0.707107 0.000000
vn -0.707107 0.707107 0.000000
vn -0.846724 0.532032 0.000000
vn -0.846724 0.532032 0.000000
vn -0.943883 0.330279 0.000000
vn -0.943883 0.330279 0.000000
vn -0.993712 0.111965 0.000000
vn -0.993712 0.111965 0.000000
vn 0.000000 1.000000 -0.000000
vn -0.000000 1.000000 0.000000
vn 0.000000 1.000000 -0.000000
vn -0.000000 1.000000 -0.000000
vn 0.000000 1.000000 -0.000000
vn -0.000000 1.000000 -0.000000
vn -0.000000 1.000000 0.000000
vn 0.000000 1.000000 -0.000000
vn 0.000000 1.000000 0.000000
vn 0.000000 1.000000 0.000000
vn 0.000000 1.000000 0.000000
vn 0.000000 1.000000 -0.000000
vn -0.000000 1.000000 0.000000
vn 0.000000 1.000000 0.000000
vn 0.000000 1.000000 0.000000
vn 0.000000 1.000000 0.000000
vn 0.000000 1.000000 0.000000
vn 0.000000 0.000000 -1.000000
vn 0.000000 0.000000 -1.000000
vn 0.000000 0.000000 -1.000000
vn 0.000000 0.000000 -1.000000
vn 0.000000 0.000000 -1.000000
vn 0.000000 0.000000 -1.000000
vn 0.000000 0.000000 -1.000000
vn 0.000000 0.000000 -1.000000
vn 0.000000 0.000000 -1.000000
vn 0.000000 0.000000 -1.000000
vn 0.000000 0.000000 -1.000000
vn 0.000000 0.000000 -1.000000
vn 0.000000 0.000000 -1.000000
vn -0.000000 0.000000 1.000000
vn 0.000000 0.000000 1.000000
vn -0.000000 0.000000 1.000000
vn -0.000000 0.000000 1.000000
vn 0.000000 0.000000 1.000000
vn 0.000000 0.000000 1.000000
vn 0.000000 0.000000 1.000000
vn -0.000000 0.000000 1.000000
vn 0.000000 0.000000 1.000000
vn 0.000000 0.000000 1.000000
vn 0.000000 0.000000 1.000000
vn -0.000000 0.000000 1.000000
vn 0.000000 0.000000 1.000000
f 1//1 2//1 3//1
f 4//2 5//2 6//2
f 5//3 2//3 6//3
f 6//4 2//4 1//4
f 5//5 7//5 8//5
f 2//6 5//6 9//6
f 7//7 10//7 11//7
f 12//8 13//8 2//8
f 2//9 14//9 12//9
f 13//10 15//10 2//10
f 2//11 16//11 14//11
f 15//12 17//12 2//12
f 2//13 9//13 16//13
f 2//14 18//14 10//14
f 17//15 18//15 2//15
f 18//16 19//16 10//16
f 19//17 20//17 10//17
f 20//18 21//18 10//18
f 21//19 22//19 10//19
f 22//20 23//20 10//20
f 23//21 11//21 10//21
f 9//22 5//22 24//22
f 24//23 5//23 25//23
f 25//24 5//24 26//24
f 26//25 5//25 27//25
f 27//26 5//26 28//26
f 28//27 5//27 29//27
f 29//28 5//28 8//28
f 8//29 7//29 30//29
f 30//30 7//30 31//30
f 31//31 7//31 32//31
f 32//32 7//32 33//32
f 33//33 7//33 34//33
f 34//34 7//34 11//34
f 4//35 35//35 5//35
f 36//36 7//36 35//36
f 37//37 7//37 36//37
f 35//38 7//38 5//38
f 37//39 38//39 7//39
f 38//40 39//40 7//40
f 39//41 40//41 7//41
f 40//42 41//42 7//42
f 41//43 42//43 7//43
f 43//44 44//44 45//44
f 44//45 46//45 47//45
f 47//46 46//46 42//46
f 42//47 46//47 7//47
f 43//48 48//48 44//48
f 44//49 48//49 46//49
f 49//50 3//50 2//50
f 10//51 50//51 49//51
f 10//52 51//52 50//52
f 10//53 49//53 2//53
f 52//54 51//54 10//54
f 53//55 52//55 10//55
f 54//56 53//56 10//56
f 55//57 54//57 10//57
f 56//58 55//58 10//58
f 57//59 58//59 59//59
f 60//60 57//60 61//60
f 60//61 61//61 56//61
f 60//62 56//62 10//62
f 62//63 58//63 57//63
f 62//64 57//64 60//64
f 35//65 6//65 63//65
f 35//66 4//66 6//66
f 64//67 3//67 49//67
f 64//68 1//68 3//68
f 65//69 64//69 66//69
f 67//70 64//70 65//70
f 1//71 67//71 68//71
f 1//72 64//72 67//72
f 69//73 1//73 68//73
f 70//74 1//74 69//74
f 71//75 1//75 70//75
f 63//76 72//76 73//76
f 63//77 73//77 74//77
f 6//78 71//78 75//78
f 6//79 75//79 76//79
f 6//80 76//80 77//80
f 6//81 77//81 78//81
f 6//82 78//82 72//82
f 6//83 1//83 71//83
f 6//84 72//84 63//84
f 79//85 60//85 10//85
f 79//86 80//86 60//86
f 46//87 81//87 82//87
f 7//88 46//88 82//88
f 10//89 7//89 82//89
f 10//90 82//90 79//90
f 28//91 29//91 73//91
f 73//92 29//92 74//92
f 74//93 8//93 83//93
f 29//94 8//94 74//94
f 84//95 11//95 85//95
f 83//96 30//96 86//96
f 8//97 30//97 83//97
f 85//98 23//98 87//98
f 11//99 23//99 85//99
f 86//100 31//100 88//100
f 30//101 31//101 86//101
f 87//102 22//102 89//102
f 23//103 22//103 87//103
f 88//104 32//104 90//104
f 31//105 32//105 88//105
f 89//106 21//106 91//106
f 22//107 21//107 89//107
f 90//108 33//108 92//108
f 91//109 20//109 93//109
f 32//110 33//110 90//110
f 21//111 20//111 91//111
f 92//112 34//112 94//112
f 33//113 34//113 92//113
f 93//114 19//114 95//114
f 94//115 11//115 84//115
f 34//116 11//116 94//116
f 20//117 19//117 93//117
f 95//118 18//118 66//118
f 19//119 18//119 95//119
f 66//120 17//120 65//120
f 18//121 17//121 66//121
f 65//122 15//122 67//122
f 17//123 15//123 65//123
f 67//124 13//124 68//124
f 15//125 13//125 67//125
f 68//126 12//126 69//126
f 13//127 12//127 68//127
f 12//128 14//128 69//128
f 69//129 14//129 70//129
f 14//130 16//130 70//130
f 70//131 16//131 71//131
f 16//132 9//132 71//132
f 71//133 9//133 75//133
f 9//134 24//134 75//134
f 75//135 24//135 76//135
f 24//136 25//136 76//136
f 76//137 25//137 77//137
f 25//138 26//138 77//138
f 77//139 26//139 78//139
f 26//140 27//140 78//140
f 78//141 27//141 72//141
f 27//142 28//142 72//142
f 72//143 28//143 73//143
f 46//144 96//144 81//144
f 46//145 48//145 96//145
f 48//146 97//146 96//146
f 48//147 43//147 97//147
f 45//148 98//148 97//148
f 43//149 45//149 97//149
f 45//150 99//150 98//150
f 45//151 44//151 99//151
f 44//152 100//152 99//152
f 44//153 47//153 100//153
f 42//154 101//154 100//154
f 47//155 42//155 100//155
f 36//156 63//156 102//156
f 36//157 35//157 63//157
f 37//158 102//158 103//158
f 37//159 36//159 102//159
f 38//160 103//160 104//160
f 38//161 37//161 103//161
f 39//162 104//162 105//162
f 39//163 38//163 104//163
f 40//164 105//164 106//164
f 40//165 39//165 105//165
f 41//166 106//166 107//166
f 41//167 40//167 106//167
f 42//168 107//168 101//168
f 42//169 41//169 107//169
f 80//170 62//170 60//170
f 80//171 108//171 62//171
f 108//172 58//172 62//172
f 108//173 109//173 58//173
f 109//174 59//174 58//174
f 109//175 110//175 59//175
f 111//176 57//176 59//176
f 110//177 111//177 59//177
f 111//178 61//178 57//178
f 111//179 112//179 61//179
f 112//180 56//180 61//180
f 112//181 113//181 56//181
f 114//182 49//182 50//182
f 114//183 64//183 49//183
f 115//184 50//184 51//184
f 115//185 114//185 50//185
f 116//186 51//186 52//186
f 116//187 115//187 51//187
f 117//188 52//188 53//188
f 117//189 116//189 52//189
f 118//190 53//190 54//190
f 118//191 117//191 53//191
f 119//192 54//192 55//192
f 119//193 118//193 54//193
f 113//194 55//194 56//194
f 113//195 119//195 55//195
f 91//196 64//196 79//196
f 91//197 79//197 89//197
f 87//198 89//198 79//198
f 93//199 64//199 91//199
f 85//200 87//200 79//200
f 95//201 64//201 93//201
f 66//202 64//202 95//202
f 84//203 85//203 79//203
f 82//204 90//204 92//204
f 82//205 92//205 94//205
f 82//206 94//206 84//206
f 82//207 84//207 79//207
f 88//208 90//208 82//208
f 63//209 74//209 83//209
f 63//210 83//210 86//210
f 63//211 86//211 88//211
f 63//212 88//212 82//212
f 111//213 108//213 80//213
f 112//214 111//214 80//214
f 109//215 108//215 111//215
f 110//216 109//216 111//216
f 113//217 112//217 80//217
f 79//218 113//218 80//218
f 119//219 113//219 79//219
f 118//220 119//220 79//220
f 117//221 118//221 79//221
f 116//222 117//222 79//222
f 115//223 116//223 79//223
f 114//224 115//224 79//224
f 79//225 64//225 114//225
f 104//226 82//226 105//226
f 106//227 105//227 82//227
f 103//228 82//228 104//228
f 102//229 82//229 103//229
f 107//230 106//230 82//230
f 101//231 107//231 82//231
f 81//232 101//232 82//232
f 100//233 101//233 81//233
f 96//234 99//234 100//234
f 96//235 100//235 81//235
f 97//236 98//236 99//236
f 97//237 99//237 96//237
f 63//238 82//238 102//238
