# Created by FreeCAD <http://www.freecadweb.org>
v 0.000000 -25.200001 11.500000
v 0.000000 -25.200001 2.400000
v 0.000000 -29.500000 11.500000
v 0.000000 -29.500000 0.750000
v 0.000000 -16.750000 11.500000
v 0.000000 -21.299999 2.400000
v 0.000000 -21.299999 11.500000
v 0.000000 -16.750000 0.750000
v 0.500000 -30.000000 12.000000
v 0.500000 -24.700001 12.000000
v 0.500000 -24.700001 2.900000
v 0.500000 -30.000000 0.250000
v 0.500000 -21.799999 2.900000
v 0.500000 -16.250000 0.250000
v 0.500000 -21.799999 12.000000
v 0.500000 -16.250000 12.000000
v 2.000000 -24.700001 12.000000
v 2.000000 -30.000000 12.000000
v 2.000000 -24.700001 8.000000
v 6.000000 -24.700001 2.900000
v 6.000000 -24.700001 8.000000
v 18.601961 -30.000000 12.000000
v 18.601961 -30.000000 8.000000
v 20.000000 -30.000000 12.000000
v 20.000000 -30.000000 6.000000
v 14.601960 -30.000000 8.000000
v 20.000000 -30.000000 2.900000
v 20.000000 -30.000000 0.250000
v 6.000000 -30.000000 12.000000
v 6.000000 -30.000000 8.000000
v 14.601960 -30.000000 12.000000
v 2.000000 -30.000000 8.000000
v 17.000000 -21.799999 2.900000
v 14.601960 -24.700001 2.900000
v 17.000000 -24.700001 2.900000
v 20.000000 -24.700001 2.900000
v 20.000000 -21.799999 2.900000
v 10.900000 -24.700001 2.900000
v 8.300981 -27.600000 2.900000
v 12.300981 -27.600000 2.900000
v 13.200980 -21.799999 2.900000
v 9.701961 -24.700001 2.900000
v 7.400980 -21.799999 2.900000
v 6.000000 -21.799999 2.900000
v 20.000000 -21.799999 0.250000
v 20.000000 -19.000000 0.250000
v 20.000000 -16.250000 0.250000
v 2.000000 -21.799999 8.000000
v 6.000000 -21.799999 8.000000
v 2.000000 -21.799999 12.000000
v 18.601961 -16.250000 8.000000
v 20.000000 -16.250000 12.000000
v 14.601960 -16.250000 8.000000
v 18.601961 -16.250000 12.000000
v 6.000000 -16.250000 8.000000
v 2.000000 -16.250000 8.000000
v 6.000000 -16.250000 12.000000
v 14.601960 -16.250000 12.000000
v 2.000000 -16.250000 12.000000
v 8.300981 -27.600000 12.000000
v 6.000000 -24.700001 12.000000
v 20.000000 -29.875000 0.375000
v 20.000000 -29.875000 2.775000
v 20.000000 -21.924999 2.775000
v 20.000000 -21.924999 0.375000
v 20.000000 -27.250000 6.000000
v 20.000000 -24.700001 12.000000
v 20.000000 -27.250000 12.000000
v 20.000000 -27.375000 11.875000
v 20.000000 -29.875000 11.875000
v 20.000000 -29.875000 6.125000
v 20.000000 -27.375000 6.125000
v 18.601961 -24.700001 12.000000
v 18.601961 -24.700001 8.000000
v 12.300981 -27.600000 12.000000
v 14.601960 -24.700001 12.000000
v 17.000000 -24.700001 8.000000
v 14.601960 -24.700001 8.000000
v 7.400980 -21.799999 12.000000
v 6.000000 -21.799999 12.000000
v 9.701961 -24.700001 12.000000
v 10.900000 -24.700001 12.000000
v 13.200980 -21.799999 12.000000
v 14.601960 -21.799999 8.000000
v 17.000000 -21.799999 8.000000
v 14.601960 -21.799999 12.000000
v 18.601961 -21.799999 8.000000
v 20.000000 -21.799999 12.000000
v 18.601961 -21.799999 12.000000
v 20.000000 -19.000000 12.000000
v 20.000000 -18.875000 11.875000
v 20.000000 -16.375000 11.875000
v 20.000000 -18.875000 0.375000
v 20.000000 -16.375000 0.375000
v 26.000000 -29.875000 2.775000
v 26.000000 -21.924999 2.775000
v 26.000000 -21.924999 0.375000
v 26.000000 -29.875000 0.375000
v 26.000000 -29.875000 11.875000
v 26.000000 -27.375000 11.875000
v 26.000000 -29.875000 6.125000
v 26.000000 -27.375000 6.125000
v 26.000000 -18.875000 11.875000
v 26.000000 -16.375000 11.875000
v 26.000000 -16.375000 0.375000
v 26.000000 -18.875000 0.375000
vn -1.000000 -0.000000 -0.000000
vn -1.000000 0.000000 -0.000000
vn -1.000000 -0.000000 -0.000000
vn -1.000000 0.000000 -0.000000
vn -1.000000 0.000000 -0.000000
vn -1.000000 0.000000 -0.000000
vn -0.707107 0.000000 0.707107
vn -0.707107 0.000000 0.707107
vn -0.707107 0.707107 0.000000
vn -0.707107 0.707107 -0.000000
vn -0.707107 -0.707107 0.000000
vn -0.707107 -0.707107 0.000000
vn -0.707107 0.000000 0.707107
vn -0.707107 0.000000 0.707107
vn -0.707107 -0.000000 -0.707107
vn -0.707107 -0.000000 -0.707107
vn -0.707107 -0.707107 0.000000
vn -0.707107 -0.707107 0.000000
vn -0.707107 0.707107 0.000000
vn -0.707107 0.707107 0.000000
vn -0.707107 0.000000 0.707107
vn -0.707107 0.000000 0.707107
vn 0.000000 0.000000 1.000000
vn -0.000000 0.000000 1.000000
vn 0.000000 1.000000 0.000000
vn 0.000000 1.000000 0.000000
vn -0.000000 1.000000 0.000000
vn -0.000000 1.000000 0.000000
vn 0.000000 -1.000000 0.000000
vn 0.000000 -1.000000 0.000000
vn -0.000000 -1.000000 -0.000000
vn -0.000000 -1.000000 -0.000000
vn 0.000000 -1.000000 0.000000
vn 0.000000 -1.000000 0.000000
vn 0.000000 -1.000000 -0.000000
vn -0.000000 -1.000000 -0.000000
vn 0.000000 -1.000000 0.000000
vn 0.000000 -1.000000 -0.000000
vn 0.000000 -1.000000 -0.000000
vn 0.000000 -1.000000 0.000000
vn 0.000000 0.000000 1.000000
vn 0.000000 0.000000 1.000000
vn -0.000000 0.000000 1.000000
vn 0.000000 0.000000 1.000000
vn -0.000000 0.000000 1.000000
vn -0.000000 0.000000 1.000000
vn 0.000000 0.000000 1.000000
vn -0.000000 0.000000 1.000000
vn -0.000000 0.000000 1.000000
vn 0.000000 0.000000 1.000000
vn -0.000000 0.000000 1.000000
vn 0.000000 0.000000 1.000000
vn -0.000000 0.000000 1.000000
vn 0.000000 0.000000 -1.000000
vn 0.000000 0.000000 -1.000000
vn 0.000000 0.000000 -1.000000
vn 0.000000 0.000000 -1.000000
vn 0.000000 -1.000000 0.000000
vn -0.000000 -1.000000 -0.000000
vn -0.000000 -1.000000 -0.000000
vn -0.000000 -1.000000 0.000000
vn -0.000000 1.000000 0.000000
vn 0.000000 1.000000 0.000000
vn 0.000000 1.000000 0.000000
vn 0.000000 1.000000 0.000000
vn 0.000000 1.000000 0.000000
vn 0.000000 1.000000 0.000000
vn 0.000000 1.000000 -0.000000
vn 0.000000 1.000000 0.000000
vn 0.000000 1.000000 -0.000000
vn 0.000000 1.000000 0.000000
vn 0.000000 0.000000 1.000000
vn -0.000000 0.000000 1.000000
vn 1.000000 0.000000 0.000000
vn 1.000000 0.000000 0.000000
vn 0.000000 0.000000 1.000000
vn 0.000000 0.000000 1.000000
vn 0.783369 0.621557 0.000000
vn 0.783369 0.621557 0.000000
vn 0.783369 0.621557 0.000000
vn 1.000000 0.000000 0.000000
vn 1.000000 0.000000 0.000000
vn 1.000000 0.000000 0.000000
vn 1.000000 0.000000 -0.000000
vn 1.000000 0.000000 0.000000
vn 1.000000 0.000000 0.000000
vn 1.000000 0.000000 0.000000
vn 1.000000 0.000000 -0.000000
vn 1.000000 0.000000 0.000000
vn 1.000000 0.000000 0.000000
vn 1.000000 0.000000 0.000000
vn 1.000000 0.000000 0.000000
vn 1.000000 0.000000 -0.000000
vn 1.000000 0.000000 -0.000000
vn 1.000000 0.000000 0.000000
vn 1.000000 0.000000 0.000000
vn 1.000000 0.000000 -0.000000
vn 1.000000 0.000000 0.000000
vn 1.000000 0.000000 0.000000
vn 1.000000 0.000000 -0.000000
vn 1.000000 0.000000 0.000000
vn -0.000000 0.000000 1.000000
vn 0.000000 0.000000 1.000000
vn 0.000000 0.000000 1.000000
vn -1.000000 0.000000 0.000000
vn -1.000000 0.000000 0.000000
vn -1.000000 0.000000 0.000000
vn -1.000000 0.000000 0.000000
vn -0.000000 0.000000 1.000000
vn 0.000000 0.000000 1.000000
vn 0.000000 0.000000 1.000000
vn 0.000000 0.000000 1.000000
vn 0.000000 -0.000000 1.000000
vn 0.000000 0.000000 1.000000
vn 0.000000 0.000000 1.000000
vn 1.000000 0.000000 0.000000
vn 1.000000 0.000000 0.000000
vn 0.000000 -1.000000 0.000000
vn -0.000000 -1.000000 0.000000
vn 0.000000 -1.000000 0.000000
vn -0.783369 -0.621557 0.000000
vn -0.783369 -0.621557 -0.000000
vn -0.000000 -1.000000 0.000000
vn 0.000000 -1.000000 -0.000000
vn -0.000000 1.000000 0.000000
vn 0.000000 1.000000 0.000000
vn 0.783369 -0.621557 0.000000
vn 0.783369 -0.621557 0.000000
vn -0.783369 0.621557 0.000000
vn -0.783369 0.621557 0.000000
vn -0.783369 0.621557 0.000000
vn 0.000000 -1.000000 -0.000000
vn -0.000000 -1.000000 -0.000000
vn 0.000000 -1.000000 0.000000
vn -0.000000 -1.000000 -0.000000
vn 0.000000 1.000000 0.000000
vn -0.000000 1.000000 0.000000
vn 0.000000 -1.000000 0.000000
vn -0.000000 -1.000000 0.000000
vn 0.000000 -1.000000 0.000000
vn -0.000000 -1.000000 0.000000
vn 0.000000 1.000000 0.000000
vn -0.000000 1.000000 0.000000
vn 0.000000 1.000000 0.000000
vn -0.000000 1.000000 0.000000
vn 1.000000 0.000000 0.000000
vn 1.000000 0.000000 0.000000
vn 1.000000 0.000000 -0.000000
vn 1.000000 0.000000 0.000000
vn 1.000000 0.000000 0.000000
vn 1.000000 0.000000 0.000000
vn 1.000000 0.000000 -0.000000
vn 1.000000 0.000000 0.000000
vn 1.000000 0.000000 0.000000
vn 1.000000 0.000000 -0.000000
vn 1.000000 0.000000 0.000000
vn 1.000000 0.000000 0.000000
vn 1.000000 0.000000 0.000000
vn 0.000000 0.000000 1.000000
vn 0.000000 0.000000 1.000000
vn -1.000000 0.000000 0.000000
vn -1.000000 0.000000 0.000000
vn -0.000000 0.000000 1.000000
vn 0.000000 0.000000 1.000000
vn 0.000000 0.000000 1.000000
vn 0.000000 0.000000 1.000000
vn 0.000000 0.000000 1.000000
vn 0.000000 0.000000 1.000000
vn 0.000000 0.000000 1.000000
vn -0.000000 0.000000 1.000000
vn 0.000000 0.000000 1.000000
vn -1.000000 0.000000 0.000000
vn -1.000000 0.000000 0.000000
vn 1.000000 0.000000 0.000000
vn 1.000000 0.000000 0.000000
vn 0.000000 -0.000000 1.000000
vn 0.000000 0.000000 1.000000
vn 0.000000 0.000000 1.000000
vn 0.000000 -0.000000 1.000000
vn 0.000000 0.000000 1.000000
vn 0.000000 1.000000 0.000000
vn 0.000000 1.000000 0.000000
vn 0.000000 -1.000000 0.000000
vn 0.000000 -1.000000 0.000000
vn -0.000000 -0.000000 -1.000000
vn 0.000000 0.000000 -1.000000
vn 0.000000 -0.000000 1.000000
vn 0.000000 0.000000 1.000000
vn 0.000000 -1.000000 0.000000
vn 0.000000 -1.000000 0.000000
vn 0.000000 1.000000 0.000000
vn 0.000000 1.000000 0.000000
vn 0.000000 -0.000000 -1.000000
vn -0.000000 0.000000 -1.000000
vn 0.000000 -0.000000 1.000000
vn 0.000000 0.000000 1.000000
vn 0.000000 1.000000 0.000000
vn 0.000000 1.000000 0.000000
vn 0.000000 -1.000000 0.000000
vn 0.000000 -1.000000 0.000000
vn -0.000000 -0.000000 -1.000000
vn 0.000000 0.000000 -1.000000
vn 1.000000 0.000000 0.000000
vn 1.000000 0.000000 -0.000000
vn 1.000000 0.000000 0.000000
vn 1.000000 0.000000 -0.000000
vn 1.000000 0.000000 0.000000
vn 1.000000 0.000000 -0.000000
f 1//1 2//1 3//1
f 3//2 2//2 4//2
f 5//3 6//3 7//3
f 2//4 6//4 4//4
f 5//5 8//5 6//5
f 6//6 8//6 4//6
f 9//7 10//7 1//7
f 9//8 1//8 3//8
f 10//9 11//9 1//9
f 1//10 11//10 2//10
f 12//11 9//11 3//11
f 12//12 3//12 4//12
f 11//13 13//13 2//13
f 2//14 13//14 6//14
f 8//15 12//15 4//15
f 14//16 12//16 8//16
f 13//17 15//17 7//17
f 13//18 7//18 6//18
f 16//19 14//19 8//19
f 16//20 8//20 5//20
f 15//21 16//21 5//21
f 15//22 5//22 7//22
f 17//23 9//23 18//23
f 10//24 9//24 17//24
f 11//25 19//25 20//25
f 11//26 10//26 19//26
f 19//27 21//27 20//27
f 10//28 17//28 19//28
f 22//29 23//29 24//29
f 23//30 25//30 24//30
f 25//31 26//31 27//31
f 23//32 26//32 25//32
f 26//33 28//33 27//33
f 29//34 30//34 31//34
f 31//35 30//35 26//35
f 26//36 30//36 28//36
f 9//37 32//37 18//37
f 32//38 12//38 30//38
f 30//39 12//39 28//39
f 9//40 12//40 32//40
f 33//41 34//41 35//41
f 33//42 35//42 36//42
f 33//43 36//43 37//43
f 38//44 39//44 40//44
f 38//45 40//45 34//45
f 41//46 34//46 33//46
f 41//47 38//47 34//47
f 42//48 39//48 38//48
f 20//49 39//49 42//49
f 43//50 20//50 42//50
f 44//51 20//51 43//51
f 13//52 11//52 20//52
f 13//53 20//53 44//53
f 28//54 12//54 45//54
f 45//55 14//55 46//55
f 46//56 14//56 47//56
f 12//57 14//57 45//57
f 44//58 48//58 13//58
f 49//59 48//59 44//59
f 50//60 15//60 48//60
f 48//61 15//61 13//61
f 51//62 52//62 47//62
f 47//63 53//63 51//63
f 51//64 54//64 52//64
f 14//65 55//65 47//65
f 47//66 55//66 53//66
f 14//67 56//67 55//67
f 53//68 57//68 58//68
f 55//69 57//69 53//69
f 56//70 16//70 59//70
f 14//71 16//71 56//71
f 59//72 15//72 50//72
f 16//73 15//73 59//73
f 19//74 18//74 32//74
f 17//75 18//75 19//75
f 32//76 21//76 19//76
f 32//77 30//77 21//77
f 21//78 39//78 20//78
f 60//79 39//79 21//79
f 61//80 60//80 21//80
f 28//81 62//81 63//81
f 28//82 63//82 27//82
f 36//83 27//83 63//83
f 64//84 37//84 36//84
f 45//85 64//85 65//85
f 45//86 65//86 62//86
f 45//87 62//87 28//87
f 45//88 37//88 64//88
f 63//89 64//89 36//89
f 66//90 67//90 68//90
f 27//91 66//91 25//91
f 36//92 66//92 27//92
f 36//93 67//93 66//93
f 69//94 68//94 24//94
f 69//95 24//95 70//95
f 71//96 24//96 25//96
f 71//97 70//97 24//97
f 66//98 72//98 71//98
f 66//99 71//99 25//99
f 66//100 68//100 69//100
f 66//101 69//101 72//101
f 73//102 68//102 67//102
f 68//103 22//103 24//103
f 73//104 22//104 68//104
f 30//105 61//105 21//105
f 29//106 61//106 30//106
f 23//107 73//107 74//107
f 22//108 73//108 23//108
f 75//109 31//109 76//109
f 75//110 60//110 31//110
f 61//111 29//111 60//111
f 60//112 29//112 31//112
f 23//113 74//113 77//113
f 26//114 77//114 78//114
f 26//115 23//115 77//115
f 78//116 31//116 26//116
f 76//117 31//117 78//117
f 49//118 44//118 43//118
f 79//119 80//119 49//119
f 43//120 79//120 49//120
f 81//121 79//121 43//121
f 81//122 43//122 42//122
f 82//123 81//123 42//123
f 82//124 42//124 38//124
f 60//125 75//125 40//125
f 60//126 40//126 39//126
f 83//127 82//127 41//127
f 41//128 82//128 38//128
f 40//129 78//129 34//129
f 40//130 75//130 78//130
f 75//131 76//131 78//131
f 84//132 41//132 33//132
f 85//133 84//133 33//133
f 83//134 41//134 84//134
f 86//135 83//135 84//135
f 78//136 35//136 34//136
f 78//137 77//137 35//137
f 37//138 87//138 33//138
f 87//139 85//139 33//139
f 37//140 88//140 87//140
f 88//141 89//141 87//141
f 74//142 36//142 35//142
f 77//143 74//143 35//143
f 67//144 36//144 74//144
f 73//145 67//145 74//145
f 37//146 90//146 88//146
f 46//147 37//147 45//147
f 46//148 90//148 37//148
f 52//149 91//149 92//149
f 52//150 90//150 91//150
f 46//151 91//151 90//151
f 93//152 91//152 46//152
f 47//153 94//153 93//153
f 47//154 93//154 46//154
f 47//155 52//155 92//155
f 47//156 92//156 94//156
f 56//157 50//157 48//157
f 59//158 50//158 56//158
f 48//159 55//159 56//159
f 48//160 49//160 55//160
f 49//161 57//161 55//161
f 80//162 57//162 49//162
f 54//163 90//163 52//163
f 90//164 89//164 88//164
f 54//165 89//165 90//165
f 58//166 83//166 86//166
f 58//167 57//167 83//167
f 57//168 79//168 83//168
f 83//169 81//169 82//169
f 79//170 81//170 83//170
f 57//171 80//171 79//171
f 87//172 54//172 51//172
f 89//173 54//173 87//173
f 53//174 86//174 84//174
f 58//175 86//175 53//175
f 85//176 51//176 53//176
f 85//177 87//177 51//177
f 84//178 85//178 53//178
f 95//179 96//179 63//179
f 63//180 96//180 64//180
f 96//181 97//181 64//181
f 64//182 97//182 65//182
f 98//183 95//183 62//183
f 62//184 95//184 63//184
f 97//185 98//185 65//185
f 65//186 98//186 62//186
f 99//187 100//187 69//187
f 99//188 69//188 70//188
f 101//189 99//189 70//189
f 101//190 70//190 71//190
f 100//191 102//191 72//191
f 100//192 72//192 69//192
f 102//193 101//193 71//193
f 102//194 71//194 72//194
f 103//195 104//195 91//195
f 91//196 104//196 92//196
f 104//197 105//197 92//197
f 92//198 105//198 94//198
f 106//199 103//199 93//199
f 93//200 103//200 91//200
f 105//201 106//201 94//201
f 94//202 106//202 93//202
f 98//203 96//203 95//203
f 97//204 96//204 98//204
f 102//205 99//205 101//205
f 102//206 100//206 99//206
f 106//207 104//207 103//207
f 105//208 104//208 106//208
