# Created by FreeCAD <http://www.freecadweb.org>
v 15.950000 -1.450000 0.000000
v 15.950000 1.450000 2.350000
v 15.950000 -1.450000 2.350000
v 15.950000 1.450000 0.000000
v 15.950000 -1.450000 2.850000
v 15.950000 -1.450000 9.750000
v 18.850000 -1.450000 9.750000
v 18.850000 -1.450000 0.000000
v 15.450000 1.450000 2.850000
v 15.450000 -1.450000 2.850000
v 21.750000 1.450000 0.000000
v 29.500000 -6.875000 0.000000
v 21.750000 -6.875000 0.000000
v 29.500000 6.875000 0.000000
v 15.750000 -3.875000 0.000000
v 18.850000 -6.875000 0.000000
v 15.750000 -6.875000 0.000000
v 21.750000 3.875000 0.000000
v 21.750000 6.875000 0.000000
v 9.750000 -3.875000 0.000000
v 0.000000 -9.875000 0.000000
v 9.750000 -6.875000 0.000000
v 9.750000 -9.875000 0.000000
v 9.750000 3.875000 0.000000
v 0.000000 9.875000 0.000000
v 9.750000 6.875000 0.000000
v 9.750000 9.875000 0.000000
v 15.950000 1.450000 9.750000
v 15.950000 1.450000 2.850000
v 21.750000 1.450000 9.750000
v 9.750000 -1.450000 9.750000
v 9.750000 -1.450000 2.850000
v 18.850000 -6.875000 9.750000
v 9.750000 -6.875000 9.750000
v 9.750000 -2.000000 9.750000
v 0.000000 -9.875000 9.750000
v 9.750000 -9.875000 9.750000
v 0.000000 -2.000000 9.750000
v 9.750000 1.450000 9.750000
v 9.750000 1.450000 2.850000
v 0.000000 -2.000000 2.850000
v 9.750000 -2.000000 2.850000
v 9.750000 2.000000 2.850000
v 0.000000 2.000000 2.850000
v 21.750000 -6.875000 9.750000
v 29.500000 -6.875000 9.750000
v 29.500000 6.875000 9.750000
v 21.750000 6.875000 6.000000
v 9.750000 6.875000 6.000000
v 9.750000 6.875000 9.750000
v 21.750000 3.875000 6.000000
v 9.750000 3.875000 6.000000
v 9.750000 9.875000 9.750000
v 0.000000 9.875000 9.750000
v 0.000000 2.000000 9.750000
v 9.750000 -6.875000 6.000000
v 9.750000 -3.875000 6.000000
v 15.750000 -3.875000 6.000000
v 15.750000 -6.875000 6.000000
v 9.750000 2.000000 9.750000
vn 1.000000 0.000000 0.000000
vn 1.000000 0.000000 0.000000
vn 0.000000 1.000000 0.000000
vn 0.000000 1.000000 0.000000
vn 0.000000 1.000000 0.000000
vn 0.000000 1.000000 -0.000000
vn 0.707107 0.000000 0.707107
vn 0.707107 0.000000 0.707107
vn 0.000000 0.000000 -1.000000
vn 0.000000 0.000000 -1.000000
vn 0.000000 0.000000 -1.000000
vn 0.000000 0.000000 -1.000000
vn 0.000000 0.000000 -1.000000
vn 0.000000 -0.000000 -1.000000
vn 0.000000 0.000000 -1.000000
vn 0.000000 0.000000 -1.000000
vn 0.000000 0.000000 -1.000000
vn 0.000000 0.000000 -1.000000
vn 0.000000 0.000000 -1.000000
vn 0.000000 0.000000 -1.000000
vn 0.000000 -0.000000 -1.000000
vn 0.000000 0.000000 -1.000000
vn 0.000000 0.000000 -1.000000
vn 0.000000 0.000000 -1.000000
vn 0.000000 0.000000 -1.000000
vn 0.000000 0.000000 -1.000000
vn 0.000000 -1.000000 0.000000
vn 0.000000 -1.000000 0.000000
vn 0.000000 -1.000000 0.000000
vn 0.000000 -1.000000 0.000000
vn -0.000000 1.000000 0.000000
vn 0.000000 1.000000 0.000000
vn 0.000000 1.000000 0.000000
vn -0.000000 1.000000 0.000000
vn 1.000000 0.000000 -0.000000
vn 1.000000 0.000000 0.000000
vn 0.000000 0.000000 1.000000
vn 0.000000 0.000000 1.000000
vn 0.000000 0.000000 1.000000
vn 0.000000 0.000000 1.000000
vn 0.000000 0.000000 1.000000
vn 0.000000 0.000000 1.000000
vn 0.000000 0.000000 1.000000
vn -0.000000 -1.000000 -0.000000
vn 0.000000 -1.000000 0.000000
vn 0.000000 -1.000000 0.000000
vn -0.000000 -1.000000 0.000000
vn 0.000000 0.000000 1.000000
vn 0.000000 0.000000 1.000000
vn 0.000000 0.000000 1.000000
vn 0.000000 0.000000 1.000000
vn 0.000000 0.000000 1.000000
vn 0.000000 0.000000 1.000000
vn -1.000000 0.000000 0.000000
vn -1.000000 0.000000 0.000000
vn 0.000000 -1.000000 0.000000
vn 0.000000 -1.000000 0.000000
vn 1.000000 0.000000 0.000000
vn 1.000000 0.000000 0.000000
vn 0.000000 1.000000 0.000000
vn 0.000000 1.000000 0.000000
vn 0.000000 1.000000 0.000000
vn 0.000000 1.000000 -0.000000
vn -1.000000 0.000000 0.000000
vn -1.000000 -0.000000 0.000000
vn 0.000000 1.000000 -0.000000
vn 0.000000 1.000000 0.000000
vn 1.000000 0.000000 0.000000
vn 1.000000 -0.000000 0.000000
vn 1.000000 0.000000 0.000000
vn 1.000000 0.000000 -0.000000
vn 1.000000 0.000000 0.000000
vn 0.000000 1.000000 0.000000
vn 0.000000 1.000000 -0.000000
vn -1.000000 0.000000 0.000000
vn -1.000000 -0.000000 0.000000
vn -1.000000 -0.000000 0.000000
vn -1.000000 0.000000 0.000000
vn -1.000000 0.000000 0.000000
vn -1.000000 0.000000 0.000000
vn 0.000000 -1.000000 0.000000
vn 0.000000 -1.000000 0.000000
vn 1.000000 0.000000 -0.000000
vn 1.000000 0.000000 0.000000
vn 1.000000 0.000000 0.000000
vn 1.000000 0.000000 0.000000
vn 1.000000 0.000000 0.000000
vn 0.000000 -1.000000 0.000000
vn 0.000000 -1.000000 0.000000
vn -1.000000 0.000000 0.000000
vn -1.000000 0.000000 0.000000
vn 0.000000 -1.000000 0.000000
vn 0.000000 -1.000000 0.000000
vn 0.000000 -1.000000 0.000000
vn 0.000000 -1.000000 0.000000
vn 0.000000 0.000000 1.000000
vn 0.000000 0.000000 1.000000
vn 0.000000 0.000000 1.000000
vn 0.000000 0.000000 1.000000
vn 0.000000 0.000000 1.000000
vn 0.000000 0.000000 1.000000
vn 0.000000 0.000000 1.000000
vn 0.000000 0.000000 1.000000
vn 0.000000 0.000000 1.000000
vn -1.000000 0.000000 0.000000
vn -1.000000 0.000000 0.000000
vn -0.000000 1.000000 0.000000
vn 0.000000 1.000000 0.000000
vn -1.000000 0.000000 0.000000
vn -1.000000 0.000000 0.000000
vn -0.000000 -1.000000 0.000000
vn 0.000000 -1.000000 -0.000000
vn 0.000000 0.000000 -1.000000
vn 0.000000 0.000000 -1.000000
vn 0.000000 0.000000 -1.000000
vn 0.000000 0.000000 -1.000000
f 1//1 2//1 3//1
f 1//2 4//2 2//2
f 5//3 6//3 7//3
f 8//4 1//4 3//4
f 8//5 3//5 5//5
f 8//6 5//6 7//6
f 9//7 10//7 2//7
f 2//8 10//8 3//8
f 11//9 12//9 13//9
f 11//10 14//10 12//10
f 15//11 16//11 17//11
f 15//12 8//12 16//12
f 18//13 14//13 11//13
f 1//14 8//14 15//14
f 19//15 14//15 18//15
f 4//16 18//16 11//16
f 20//17 4//17 1//17
f 20//18 1//18 15//18
f 21//19 22//19 23//19
f 21//20 20//20 22//20
f 24//21 20//21 21//21
f 24//22 4//22 20//22
f 25//23 26//23 24//23
f 25//24 27//24 26//24
f 25//25 24//25 21//25
f 24//26 18//26 4//26
f 28//27 29//27 30//27
f 4//28 11//28 2//28
f 2//29 11//29 29//29
f 29//30 11//30 30//30
f 10//31 5//31 3//31
f 6//32 5//32 10//32
f 31//33 10//33 32//33
f 31//34 6//34 10//34
f 8//35 7//35 33//35
f 16//36 8//36 33//36
f 7//37 6//37 33//37
f 6//38 34//38 33//38
f 6//39 35//39 34//39
f 6//40 31//40 35//40
f 34//41 36//41 37//41
f 34//42 38//42 36//42
f 35//43 38//43 34//43
f 29//44 9//44 2//44
f 29//45 28//45 9//45
f 9//46 39//46 40//46
f 28//47 39//47 9//47
f 9//48 40//48 10//48
f 10//49 40//49 32//49
f 32//50 41//50 42//50
f 43//51 44//51 40//51
f 32//52 44//52 41//52
f 40//53 44//53 32//53
f 11//54 13//54 45//54
f 11//55 45//55 30//55
f 13//56 12//56 46//56
f 13//57 46//57 45//57
f 12//58 14//58 47//58
f 12//59 47//59 46//59
f 48//60 49//60 50//60
f 47//61 48//61 50//61
f 14//62 19//62 48//62
f 14//63 48//63 47//63
f 19//64 18//64 48//64
f 48//65 18//65 51//65
f 18//66 24//66 51//66
f 51//67 24//67 52//67
f 24//68 26//68 52//68
f 52//69 26//69 49//69
f 49//70 53//70 50//70
f 27//71 53//71 49//71
f 26//72 27//72 49//72
f 25//73 54//73 53//73
f 27//74 25//74 53//74
f 41//75 36//75 38//75
f 41//76 21//76 36//76
f 54//77 44//77 55//77
f 25//78 44//78 54//78
f 25//79 21//79 41//79
f 25//80 41//80 44//80
f 23//81 37//81 36//81
f 21//82 23//82 36//82
f 56//83 34//83 37//83
f 23//84 22//84 56//84
f 23//85 56//85 37//85
f 22//86 20//86 57//86
f 22//87 57//87 56//87
f 20//88 15//88 58//88
f 20//89 58//89 57//89
f 15//90 17//90 59//90
f 15//91 59//91 58//91
f 34//92 59//92 33//92
f 16//93 33//93 59//93
f 17//94 16//94 59//94
f 56//95 59//95 34//95
f 46//96 30//96 45//96
f 47//97 30//97 46//97
f 28//98 60//98 39//98
f 28//99 50//99 60//99
f 50//100 55//100 60//100
f 53//101 54//101 50//101
f 50//102 54//102 55//102
f 47//103 50//103 30//103
f 30//104 50//104 28//104
f 35//105 31//105 32//105
f 35//106 32//106 42//106
f 38//107 35//107 41//107
f 41//108 35//108 42//108
f 39//109 60//109 40//109
f 40//110 60//110 43//110
f 60//111 55//111 44//111
f 60//112 44//112 43//112
f 49//113 48//113 51//113
f 49//114 51//114 52//114
f 56//115 58//115 59//115
f 57//116 58//116 56//116
