# Created by FreeCAD <http://www.freecadweb.org>
v 0.000000 -25.200001 11.500000
v 0.000000 -25.200001 2.400000
v 0.000000 -29.500000 11.500000
v 0.000000 -29.500000 0.750000
v 0.000000 -16.750000 11.500000
v 0.000000 -21.299999 2.400000
v 0.000000 -21.299999 11.500000
v 0.000000 -16.750000 0.750000
v 0.500000 -30.000000 12.000000
v 0.500000 -24.700001 12.000000
v 0.500000 -24.700001 2.900000
v 0.500000 -30.000000 0.250000
v 0.500000 -21.799999 2.900000
v 0.500000 -16.250000 0.250000
v 0.500000 -21.799999 12.000000
v 0.500000 -16.250000 12.000000
v 2.000000 -24.700001 12.000000
v 2.000000 -30.000000 12.000000
v 2.000000 -24.700001 8.000000
v 6.000000 -24.700001 2.900000
v 6.000000 -24.700001 8.000000
v 20.000000 -30.000000 2.900000
v 6.000000 -30.000000 8.000000
v 20.000000 -30.000000 0.250000
v 20.000000 -30.000000 6.000000
v 20.000000 -30.000000 12.000000
v 6.000000 -30.000000 12.000000
v 2.000000 -30.000000 8.000000
v 17.000000 -21.799999 2.900000
v 14.601960 -24.700001 2.900000
v 17.000000 -24.700001 2.900000
v 20.000000 -24.700001 2.900000
v 20.000000 -21.799999 2.900000
v 10.900000 -24.700001 2.900000
v 8.300981 -27.600000 2.900000
v 12.300981 -27.600000 2.900000
v 13.200980 -21.799999 2.900000
v 9.701961 -24.700001 2.900000
v 7.400980 -21.799999 2.900000
v 6.000000 -21.799999 2.900000
v 20.000000 -21.799999 0.250000
v 20.000000 -19.000000 0.250000
v 20.000000 -16.250000 0.250000
v 2.000000 -21.799999 8.000000
v 6.000000 -21.799999 8.000000
v 2.000000 -21.799999 12.000000
v 6.000000 -16.250000 8.000000
v 20.000000 -16.250000 12.000000
v 2.000000 -16.250000 8.000000
v 6.000000 -16.250000 12.000000
v 2.000000 -16.250000 12.000000
v 8.300981 -27.600000 12.000000
v 6.000000 -24.700001 12.000000
v 26.000000 -30.000000 0.250000
v 26.000000 -30.000000 2.900000
v 20.000000 -27.250000 6.000000
v 20.000000 -24.700001 12.000000
v 20.000000 -27.250000 12.000000
v 26.000000 -30.000000 12.000000
v 26.000000 -30.000000 6.000000
v 17.000000 -24.700001 12.000000
v 14.601960 -24.700001 12.000000
v 12.300981 -27.600000 12.000000
v 7.400980 -21.799999 12.000000
v 6.000000 -21.799999 12.000000
v 9.701961 -24.700001 12.000000
v 10.900000 -24.700001 12.000000
v 13.200980 -21.799999 12.000000
v 17.000000 -21.799999 12.000000
v 20.000000 -21.799999 12.000000
v 26.000000 -21.799999 2.900000
v 26.000000 -21.799999 0.250000
v 20.000000 -19.000000 12.000000
v 26.000000 -16.250000 0.250000
v 26.000000 -19.000000 0.250000
v 26.000000 -16.250000 12.000000
v 26.000000 -21.799999 2.900000
v 26.000000 -30.000000 2.900000
v 26.000000 -27.250000 6.000000
v 26.000000 -27.250000 12.000000
v 26.000000 -27.250000 6.000000
v 26.000000 -30.000000 12.000000
v 26.000000 -30.000000 6.000000
v 26.000000 -27.250000 12.000000
v 26.000000 -19.000000 12.000000
v 26.000000 -16.250000 12.000000
v 26.000000 -19.000000 12.000000
vn -1.000000 -0.000000 -0.000000
vn -1.000000 -0.000000 -0.000000
vn -1.000000 -0.000000 -0.000000
vn -1.000000 0.000000 -0.000000
vn -1.000000 -0.000000 -0.000000
vn -1.000000 0.000000 -0.000000
vn -0.707107 0.000000 0.707107
vn -0.707107 0.000000 0.707107
vn -0.707107 0.707107 0.000000
vn -0.707107 0.707107 -0.000000
vn -0.707107 -0.707107 0.000000
vn -0.707107 -0.707107 0.000000
vn -0.707107 0.000000 0.707107
vn -0.707107 0.000000 0.707107
vn -0.707107 -0.000000 -0.707107
vn -0.707107 -0.000000 -0.707107
vn -0.707107 -0.707107 0.000000
vn -0.707107 -0.707107 0.000000
vn -0.707107 0.707107 0.000000
vn -0.707107 0.707107 0.000000
vn -0.707107 0.000000 0.707107
vn -0.707107 0.000000 0.707107
vn 0.000000 0.000000 1.000000
vn -0.000000 0.000000 1.000000
vn 0.000000 1.000000 0.000000
vn 0.000000 1.000000 0.000000
vn -0.000000 1.000000 0.000000
vn -0.000000 1.000000 0.000000
vn -0.000000 -1.000000 -0.000000
vn -0.000000 -1.000000 -0.000000
vn 0.000000 -1.000000 -0.000000
vn 0.000000 -1.000000 0.000000
vn 0.000000 -1.000000 0.000000
vn 0.000000 -1.000000 -0.000000
vn 0.000000 -1.000000 -0.000000
vn 0.000000 -1.000000 0.000000
vn 0.000000 0.000000 1.000000
vn 0.000000 0.000000 1.000000
vn -0.000000 0.000000 1.000000
vn 0.000000 0.000000 1.000000
vn -0.000000 0.000000 1.000000
vn -0.000000 0.000000 1.000000
vn 0.000000 0.000000 1.000000
vn -0.000000 0.000000 1.000000
vn -0.000000 0.000000 1.000000
vn 0.000000 0.000000 1.000000
vn -0.000000 0.000000 1.000000
vn 0.000000 0.000000 1.000000
vn -0.000000 0.000000 1.000000
vn 0.000000 0.000000 -1.000000
vn 0.000000 0.000000 -1.000000
vn 0.000000 0.000000 -1.000000
vn 0.000000 0.000000 -1.000000
vn 0.000000 -1.000000 0.000000
vn -0.000000 -1.000000 -0.000000
vn -0.000000 -1.000000 -0.000000
vn -0.000000 -1.000000 0.000000
vn 0.000000 1.000000 0.000000
vn 0.000000 1.000000 -0.000000
vn 0.000000 1.000000 0.000000
vn 0.000000 1.000000 0.000000
vn 0.000000 1.000000 -0.000000
vn 0.000000 1.000000 0.000000
vn 0.000000 0.000000 1.000000
vn -0.000000 0.000000 1.000000
vn 1.000000 0.000000 0.000000
vn 1.000000 0.000000 0.000000
vn 0.000000 0.000000 1.000000
vn 0.000000 0.000000 1.000000
vn 0.783369 0.621557 0.000000
vn 0.783369 0.621557 0.000000
vn 0.783369 0.621557 0.000000
vn 0.000000 -1.000000 0.000000
vn 0.000000 -1.000000 0.000000
vn 1.000000 0.000000 0.000000
vn 1.000000 0.000000 0.000000
vn 1.000000 0.000000 0.000000
vn 1.000000 0.000000 -0.000000
vn 0.000000 -1.000000 0.000000
vn 0.000000 -1.000000 -0.000000
vn 0.000000 0.000000 1.000000
vn 0.000000 0.000000 1.000000
vn -0.000000 0.000000 1.000000
vn 0.000000 0.000000 1.000000
vn -0.000000 0.000000 1.000000
vn 0.000000 0.000000 1.000000
vn 0.000000 0.000000 1.000000
vn -1.000000 0.000000 0.000000
vn -1.000000 0.000000 0.000000
vn 0.000000 -1.000000 0.000000
vn -0.000000 -1.000000 0.000000
vn 0.000000 -1.000000 0.000000
vn -0.783369 -0.621557 0.000000
vn -0.783369 -0.621557 -0.000000
vn -0.000000 -1.000000 0.000000
vn 0.000000 -1.000000 -0.000000
vn -0.000000 1.000000 0.000000
vn 0.000000 1.000000 0.000000
vn 0.783369 -0.621557 0.000000
vn 0.783369 -0.621557 0.000000
vn -0.783369 0.621557 0.000000
vn -0.783369 0.621557 0.000000
vn 0.000000 -1.000000 0.000000
vn -0.000000 -1.000000 -0.000000
vn -0.000000 1.000000 0.000000
vn 0.000000 1.000000 0.000000
vn -0.000000 -1.000000 -0.000000
vn 0.000000 -1.000000 0.000000
vn -0.000000 1.000000 0.000000
vn 0.000000 1.000000 0.000000
vn 0.000000 0.000000 1.000000
vn -0.000000 0.000000 1.000000
vn -0.000000 0.000000 1.000000
vn 0.000000 0.000000 -1.000000
vn 0.000000 0.000000 -1.000000
vn 1.000000 0.000000 0.000000
vn 1.000000 0.000000 0.000000
vn 1.000000 0.000000 -0.000000
vn 0.000000 0.000000 -1.000000
vn 0.000000 0.000000 -1.000000
vn 1.000000 0.000000 0.000000
vn 1.000000 0.000000 0.000000
vn 0.000000 0.000000 1.000000
vn 0.000000 0.000000 1.000000
vn 0.000000 1.000000 0.000000
vn 0.000000 1.000000 0.000000
vn -1.000000 0.000000 0.000000
vn -1.000000 0.000000 0.000000
vn 0.000000 0.000000 1.000000
vn 0.000000 0.000000 1.000000
vn 0.000000 0.000000 1.000000
vn 0.000000 0.000000 1.000000
vn 0.000000 0.000000 1.000000
vn 0.000000 0.000000 1.000000
vn -0.000000 0.000000 1.000000
vn 0.000000 0.000000 1.000000
vn 1.000000 0.000000 0.000000
vn 1.000000 0.000000 -0.000000
vn 0.000000 0.000000 -1.000000
vn 0.000000 0.000000 -1.000000
vn 0.000000 1.000000 0.000000
vn 0.000000 1.000000 -0.000000
vn -0.000000 0.000000 1.000000
vn 0.000000 0.000000 1.000000
vn 1.000000 0.000000 0.000000
vn 1.000000 0.000000 -0.000000
vn 0.000000 1.000000 0.000000
vn 0.000000 1.000000 0.000000
vn 0.000000 -1.000000 0.000000
vn 0.000000 -1.000000 0.000000
vn 1.000000 0.000000 -0.000000
vn 1.000000 0.000000 0.000000
vn 0.000000 0.000000 1.000000
vn -0.000000 0.000000 1.000000
f 1//1 2//1 3//1
f 3//2 2//2 4//2
f 5//3 6//3 7//3
f 2//4 6//4 4//4
f 5//5 8//5 6//5
f 6//6 8//6 4//6
f 9//7 10//7 1//7
f 9//8 1//8 3//8
f 10//9 11//9 1//9
f 1//10 11//10 2//10
f 12//11 9//11 3//11
f 12//12 3//12 4//12
f 11//13 13//13 2//13
f 2//14 13//14 6//14
f 8//15 12//15 4//15
f 14//16 12//16 8//16
f 13//17 15//17 7//17
f 13//18 7//18 6//18
f 16//19 14//19 8//19
f 16//20 8//20 5//20
f 15//21 16//21 5//21
f 15//22 5//22 7//22
f 17//23 9//23 18//23
f 10//24 9//24 17//24
f 11//25 19//25 20//25
f 11//26 10//26 19//26
f 19//27 21//27 20//27
f 10//28 17//28 19//28
f 22//29 23//29 24//29
f 25//30 23//30 22//30
f 26//31 23//31 25//31
f 27//32 23//32 26//32
f 9//33 28//33 18//33
f 28//34 12//34 23//34
f 23//35 12//35 24//35
f 9//36 12//36 28//36
f 29//37 30//37 31//37
f 29//38 31//38 32//38
f 29//39 32//39 33//39
f 34//40 35//40 36//40
f 34//41 36//41 30//41
f 37//42 30//42 29//42
f 37//43 34//43 30//43
f 38//44 35//44 34//44
f 20//45 35//45 38//45
f 39//46 20//46 38//46
f 40//47 20//47 39//47
f 13//48 11//48 20//48
f 13//49 20//49 40//49
f 24//50 12//50 41//50
f 41//51 14//51 42//51
f 42//52 14//52 43//52
f 12//53 14//53 41//53
f 40//54 44//54 13//54
f 45//55 44//55 40//55
f 46//56 15//56 44//56
f 44//57 15//57 13//57
f 14//58 47//58 43//58
f 43//59 47//59 48//59
f 14//60 49//60 47//60
f 47//61 50//61 48//61
f 49//62 16//62 51//62
f 14//63 16//63 49//63
f 51//64 15//64 46//64
f 16//65 15//65 51//65
f 19//66 18//66 28//66
f 17//67 18//67 19//67
f 28//68 21//68 19//68
f 28//69 23//69 21//69
f 21//70 35//70 20//70
f 52//71 35//71 21//71
f 53//72 52//72 21//72
f 22//73 24//73 54//73
f 22//74 54//74 55//74
f 56//75 57//75 58//75
f 22//76 56//76 25//76
f 32//77 56//77 22//77
f 32//78 57//78 56//78
f 26//79 25//79 59//79
f 59//80 25//80 60//80
f 57//81 61//81 58//81
f 61//82 26//82 58//82
f 62//83 63//83 61//83
f 61//84 63//84 26//84
f 52//85 27//85 63//85
f 53//86 27//86 52//86
f 63//87 27//87 26//87
f 23//88 53//88 21//88
f 27//89 53//89 23//89
f 45//90 40//90 39//90
f 64//91 65//91 45//91
f 39//92 64//92 45//92
f 66//93 64//93 39//93
f 66//94 39//94 38//94
f 67//95 66//95 38//95
f 67//96 38//96 34//96
f 52//97 63//97 36//97
f 52//98 36//98 35//98
f 68//99 67//99 37//99
f 37//100 67//100 34//100
f 63//101 62//101 36//101
f 36//102 62//102 30//102
f 68//103 37//103 29//103
f 69//104 68//104 29//104
f 62//105 61//105 31//105
f 62//106 31//106 30//106
f 70//107 69//107 33//107
f 33//108 69//108 29//108
f 61//109 57//109 32//109
f 61//110 32//110 31//110
f 32//111 22//111 55//111
f 32//112 55//112 71//112
f 33//113 32//113 71//113
f 24//114 41//114 72//114
f 24//115 72//115 54//115
f 33//116 73//116 70//116
f 42//117 33//117 41//117
f 42//118 73//118 33//118
f 42//119 43//119 74//119
f 42//120 74//120 75//120
f 49//121 46//121 44//121
f 51//122 46//122 49//122
f 44//123 47//123 49//123
f 44//124 45//124 47//124
f 43//125 48//125 76//125
f 43//126 76//126 74//126
f 45//127 50//127 47//127
f 65//128 50//128 45//128
f 73//129 69//129 70//129
f 48//130 69//130 73//130
f 48//131 68//131 69//131
f 48//132 50//132 68//132
f 50//133 64//133 68//133
f 68//134 66//134 67//134
f 64//135 66//135 68//135
f 50//136 65//136 64//136
f 54//137 77//137 78//137
f 72//138 77//138 54//138
f 25//139 56//139 60//139
f 60//140 56//140 79//140
f 56//141 58//141 79//141
f 79//142 58//142 80//142
f 58//143 26//143 80//143
f 80//144 26//144 59//144
f 81//145 82//145 83//145
f 81//146 84//146 82//146
f 41//147 33//147 71//147
f 41//148 71//148 72//148
f 73//149 42//149 75//149
f 73//150 75//150 85//150
f 74//151 86//151 75//151
f 75//152 86//152 87//152
f 48//153 73//153 85//153
f 48//154 85//154 76//154
