# Created by FreeCAD <http://www.freecadweb.org>
v 27.000000 8.750000 9.750000
v 27.000000 8.750000 0.000000
v 17.260000 8.750000 9.750000
v 17.260000 8.750000 0.000000
v 27.000000 5.750000 9.750000
v 17.260000 0.875000 9.750000
v 27.000000 0.875000 9.750000
v 27.000000 5.750000 0.000000
v 27.000000 0.325000 0.000000
v 27.000000 -2.575000 0.000000
v 17.260000 -11.000000 0.000000
v 27.000000 -8.000000 0.000000
v 27.000000 -11.000000 0.000000
v 17.260000 -3.125000 2.827432
v 17.260000 -11.000000 9.750000
v 17.260000 -3.125000 9.750000
v 17.260000 0.875000 2.827432
v 17.260000 8.750000 9.750000
v 17.260000 0.875000 9.750000
v 27.000000 0.325000 9.750000
v 46.750000 0.325000 9.750000
v 46.750000 5.750000 9.750000
v 27.000000 0.875000 2.827432
v 17.260000 0.875000 2.827432
v 46.750000 5.750000 0.000000
v 46.750000 0.325000 0.000000
v 17.260000 -11.000000 9.750000
v 27.000000 -11.000000 9.750000
v 27.000000 0.325000 2.827432
v 27.000000 -2.575000 2.827432
v 27.000000 -8.000000 9.750000
v 46.750000 -2.575000 0.000000
v 46.750000 -8.000000 0.000000
v 17.260000 -3.125000 9.750000
v 27.000000 -3.125000 9.750000
v 27.000000 -3.125000 2.827432
v 17.260000 -3.125000 2.827432
v 27.000000 -2.575000 9.750000
v 46.750000 -2.575000 9.750000
v 46.750000 -8.000000 9.750000
vn 0.000000 1.000000 0.000000
vn 0.000000 1.000000 0.000000
vn 0.000000 -0.000000 1.000000
vn 0.000000 0.000000 1.000000
vn 0.000000 -0.000000 1.000000
vn -0.000000 -0.000000 -1.000000
vn -0.000000 -0.000000 -1.000000
vn -0.000000 -0.000000 -1.000000
vn -0.000000 -0.000000 -1.000000
vn -0.000000 -0.000000 -1.000000
vn -0.000000 -0.000000 -1.000000
vn 1.000000 0.000000 0.000000
vn 1.000000 0.000000 -0.000000
vn -1.000000 -0.000000 0.000000
vn -1.000000 -0.000000 -0.000000
vn -1.000000 0.000000 0.000000
vn -1.000000 0.000000 0.000000
vn -1.000000 -0.000000 0.000000
vn -1.000000 0.000000 -0.000000
vn 0.000000 0.000000 1.000000
vn -0.000000 0.000000 1.000000
vn -0.000000 0.000000 1.000000
vn 0.000000 -1.000000 0.000000
vn 0.000000 -1.000000 0.000000
vn -0.000000 0.000000 -1.000000
vn -0.000000 0.000000 -1.000000
vn 0.000000 -1.000000 0.000000
vn 0.000000 -1.000000 0.000000
vn 1.000000 0.000000 0.000000
vn 1.000000 0.000000 -0.000000
vn 1.000000 0.000000 0.000000
vn 1.000000 0.000000 -0.000000
vn -0.000000 0.000000 -1.000000
vn -0.000000 0.000000 -1.000000
vn 0.000000 1.000000 0.000000
vn -0.000000 1.000000 0.000000
vn 0.000000 -0.000000 1.000000
vn 0.000000 0.000000 1.000000
vn 0.000000 -0.000000 1.000000
vn 0.000000 1.000000 0.000000
vn 0.000000 1.000000 0.000000
vn 0.000000 -0.000000 1.000000
vn 0.000000 0.000000 1.000000
vn 0.000000 -0.000000 1.000000
vn 0.000000 -0.000000 1.000000
vn 0.000000 -1.000000 0.000000
vn 0.000000 -1.000000 0.000000
vn 0.000000 -1.000000 0.000000
vn -1.000000 0.000000 -0.000000
vn -1.000000 -0.000000 0.000000
vn 1.000000 0.000000 0.000000
vn 1.000000 0.000000 -0.000000
vn 0.000000 1.000000 0.000000
vn -0.000000 1.000000 0.000000
vn -0.000000 1.000000 0.000000
vn 0.000000 -1.000000 0.000000
vn 0.000000 -1.000000 0.000000
vn 1.000000 0.000000 0.000000
vn 1.000000 0.000000 -0.000000
vn 0.000000 0.000000 1.000000
vn -0.000000 0.000000 1.000000
vn -0.000000 0.000000 1.000000
vn -1.000000 -0.000000 0.000000
vn -1.000000 0.000000 -0.000000
f 1//1 2//1 3//1
f 3//2 2//2 4//2
f 5//3 1//3 3//3
f 5//4 3//4 6//4
f 7//5 5//5 6//5
f 2//6 8//6 4//6
f 8//7 9//7 4//7
f 4//8 10//8 11//8
f 9//9 10//9 4//9
f 10//10 12//10 11//10
f 12//11 13//11 11//11
f 2//12 5//12 8//12
f 2//13 1//13 5//13
f 14//14 11//14 15//14
f 16//15 14//15 15//15
f 4//16 14//16 17//16
f 4//17 11//17 14//17
f 18//18 17//18 19//18
f 18//19 4//19 17//19
f 7//20 20//20 21//20
f 7//21 21//21 22//21
f 5//22 7//22 22//22
f 23//23 7//23 6//23
f 23//24 6//24 24//24
f 9//25 8//25 25//25
f 9//26 25//26 26//26
f 13//27 27//27 11//27
f 13//28 28//28 27//28
f 10//29 29//29 30//29
f 9//30 29//30 10//30
f 12//31 28//31 13//31
f 12//32 31//32 28//32
f 12//33 10//33 32//33
f 12//34 32//34 33//34
f 8//35 5//35 22//35
f 8//36 22//36 25//36
f 28//37 31//37 27//37
f 27//38 31//38 34//38
f 31//39 35//39 34//39
f 35//40 36//40 37//40
f 35//41 37//41 34//41
f 29//42 23//42 24//42
f 30//43 24//43 37//43
f 30//44 29//44 24//44
f 36//45 30//45 37//45
f 29//46 9//46 26//46
f 29//47 26//47 21//47
f 20//48 29//48 21//48
f 7//49 23//49 29//49
f 7//50 29//50 20//50
f 26//51 22//51 21//51
f 25//52 22//52 26//52
f 30//53 38//53 39//53
f 30//54 39//54 32//54
f 10//55 30//55 32//55
f 31//56 12//56 33//56
f 31//57 33//57 40//57
f 33//58 39//58 40//58
f 32//59 39//59 33//59
f 35//60 31//60 40//60
f 35//61 40//61 39//61
f 38//62 35//62 39//62
f 38//63 36//63 35//63
f 38//64 30//64 36//64
